<?xml version="1.0" standalone="no"?>
<!DOCTYPE svg PUBLIC "-//W3C//DTD SVG 20010904//EN"
 "http://www.w3.org/TR/2001/REC-SVG-20010904/DTD/svg10.dtd">
<svg version="1.0" xmlns="http://www.w3.org/2000/svg"
 width="128.000000pt" height="128.000000pt" viewBox="0 0 128.000000 128.000000"
 preserveAspectRatio="xMidYMid meet">

<g transform="translate(0.000000,128.000000) scale(0.100000,-0.100000)"
fill="#000000" stroke="none">
<path d="M62 1265 c-54 -24 -62 -57 -62 -275 0 -294 -4 -290 290 -290 293 0
290 -3 290 290 0 294 4 290 -292 290 -145 -1 -201 -4 -226 -15z"/>
<path d="M764 1266 c-56 -25 -64 -60 -64 -276 0 -293 -3 -290 290 -290 294 0
290 -4 290 290 0 295 5 290 -292 290 -139 -1 -202 -5 -224 -14z"/>
<path d="M61 563 c-54 -27 -61 -57 -61 -273 0 -220 7 -252 64 -275 27 -11 81
-15 226 -15 294 0 290 -4 290 290 0 293 3 290 -292 290 -159 0 -199 -3 -227
-17z"/>
<path d="M763 564 c-56 -28 -63 -59 -63 -274 0 -294 -4 -290 290 -290 295 0
290 -5 290 290 0 294 4 290 -292 290 -155 0 -199 -4 -225 -16z"/>
</g>
</svg>
